<?xml version="1.0" standalone="no"?><!DOCTYPE svg PUBLIC "-//W3C//DTD SVG 1.1//EN" "http://www.w3.org/Graphics/SVG/1.1/DTD/svg11.dtd"><svg t="1780750006599" class="icon" viewBox="0 0 1024 1024" version="1.1" xmlns="http://www.w3.org/2000/svg" p-id="11857" width="200" height="200" xmlns:xlink="http://www.w3.org/1999/xlink"><path d="M285.257143 292.571429c14.628571 0 29.257143 0 43.885714-14.628572l138.971429-138.971428v504.685714c0 14.628571 7.314286 29.257143 21.942857 36.571428 7.314286 7.314286 14.628571 7.314286 21.942857 7.314286 7.314286 0 14.628571 0 21.942857-7.314286 14.628571-7.314286 21.942857-21.942857 21.942857-36.571428V146.285714l138.971429 138.971429c7.314286 7.314286 21.942857 7.314286 36.571428 7.314286 14.628571-7.314286 29.257143-14.628571 29.257143-29.257143 7.314286-14.628571 0-29.257143-7.314285-36.571429L541.257143 14.628571c-14.628571-14.628571-43.885714-14.628571-58.514286 0L270.628571 219.428571c-14.628571 14.628571-14.628571 29.257143-14.628571 43.885715 7.314286 14.628571 14.628571 21.942857 29.257143 29.257143z" fill="#515151" p-id="11858"></path><path d="M892.342857 358.4H716.8c-21.942857 0-43.885714 21.942857-43.885714 43.885714s14.628571 36.571429 43.885714 36.571429h175.542857c21.942857 0 43.885714 21.942857 43.885714 43.885714v409.6c0 21.942857-21.942857 43.885714-43.885714 43.885714H131.657143c-21.942857 0-43.885714-21.942857-43.885714-43.885714V490.057143c0-29.257143 14.628571-51.2 43.885714-51.2H285.257143c21.942857 0 43.885714-21.942857 43.885714-43.885714s-21.942857-43.885714-43.885714-43.885715H131.657143C58.514286 358.4 0 416.914286 0 490.057143v409.6c0 36.571429 14.628571 65.828571 36.571429 87.771428 29.257143 21.942857 58.514286 36.571429 95.085714 36.571429h760.685714c73.142857 0 131.657143-58.514286 131.657143-124.342857V490.057143c0-73.142857-58.514286-131.657143-131.657143-131.657143z" fill="#515151" p-id="11859"></path></svg>