<?xml version="1.0" standalone="no"?><!DOCTYPE svg PUBLIC "-//W3C//DTD SVG 1.1//EN" "http://www.w3.org/Graphics/SVG/1.1/DTD/svg11.dtd"><svg t="1780744424527" class="icon" viewBox="0 0 1024 1024" version="1.1" xmlns="http://www.w3.org/2000/svg" p-id="3586" xmlns:xlink="http://www.w3.org/1999/xlink" width="200" height="200"><path d="M51.2 170.666667a34.133333 34.133333 0 0 1 34.133333-34.133334h853.333334a34.133333 34.133333 0 0 1 34.133333 34.133334v341.333333a34.133333 34.133333 0 0 1-34.133333 34.133333H85.333333a34.133333 34.133333 0 0 1-34.133333-34.133333V170.666667z m68.266667 34.133333v273.066667h785.066666V204.8H119.466667z" fill="#515151" p-id="3587"></path><path d="M51.2 512a34.133333 34.133333 0 0 1 34.133333-34.133333h853.333334a34.133333 34.133333 0 0 1 34.133333 34.133333v341.333333a34.133333 34.133333 0 0 1-34.133333 34.133334H85.333333a34.133333 34.133333 0 0 1-34.133333-34.133334v-341.333333z m68.266667 34.133333v273.066667h785.066666v-273.066667H119.466667z" fill="#515151" p-id="3588"></path><path d="M213.333333 477.866667a34.133333 34.133333 0 0 1 34.133334 34.133333v170.666667a34.133333 34.133333 0 0 1-68.266667 0v-170.666667a34.133333 34.133333 0 0 1 34.133333-34.133333zM341.333333 477.866667a34.133333 34.133333 0 0 1 34.133334 34.133333v170.666667a34.133333 34.133333 0 0 1-68.266667 0v-170.666667a34.133333 34.133333 0 0 1 34.133333-34.133333zM554.666667 477.866667a34.133333 34.133333 0 0 1 34.133333 34.133333v170.666667a34.133333 34.133333 0 0 1-68.266667 0v-170.666667a34.133333 34.133333 0 0 1 34.133334-34.133333zM682.666667 477.866667a34.133333 34.133333 0 0 1 34.133333 34.133333v170.666667a34.133333 34.133333 0 0 1-68.266667 0v-170.666667a34.133333 34.133333 0 0 1 34.133334-34.133333zM810.666667 477.866667a34.133333 34.133333 0 0 1 34.133333 34.133333v170.666667a34.133333 34.133333 0 0 1-68.266667 0v-170.666667a34.133333 34.133333 0 0 1 34.133334-34.133333z" fill="#515151" p-id="3589"></path></svg>